<?xml version="1.0" encoding="utf-8"?>
<!-- Generator: Adobe Illustrator 26.0.3, SVG Export Plug-In . SVG Version: 6.00 Build 0)  -->
<svg version="1.1" id="Capa_1" xmlns="http://www.w3.org/2000/svg" xmlns:xlink="http://www.w3.org/1999/xlink" x="0px" y="0px"
	 viewBox="0 0 640 188" style="enable-background:new 0 0 640 188;" xml:space="preserve">
<style type="text/css">
	.st0{fill:none;}
	.st1{fill:#281B3A;}
	.st2{fill:#FFFFFF;}
	.st3{font-family:'Montserrat-Bold';}
	.st4{font-size:21px;}
	.st5{fill:url(#Trazado_22335_00000063604979467783291450000004465173321618586755_);}
	.st6{fill:url(#Trazado_22336_00000122698730094021503410000002234704716501988543_);}
	.st7{fill:url(#Trazado_22337_00000137850286400146828870000009412069504581172139_);}
	.st8{fill:url(#Trazado_22338_00000045580169375607762640000008773968733573179520_);}
	.st9{fill:url(#Trazado_22339_00000182511786631358553700000015655569456642387102_);}
	.st10{fill:url(#Trazado_22340_00000024695416571198697380000011667668771526420882_);}
	.st11{fill:#F77E0B;}
</style>
<g id="Grupo_20620" transform="translate(1639 -817)">
	<rect id="Rect치ngulo_18656" x="-1639" y="525" class="st0" width="640" height="480"/>
	<g id="Grupo_20619" transform="translate(50)">
		<rect id="Rect치ngulo_18657" x="-1689" y="817" class="st1" width="640" height="188"/>
		<text transform="matrix(1 0 0 1 -1514.1079 862.361)" class="st2 st3 st4">VENDEDOR AUTORIZADO</text>
		<g id="main_logo_mvshub" transform="translate(-1455.738 1172.058)">
			<rect id="Rect치ngulo_9344" x="56.3" y="-254" class="st2" width="0.4" height="6.3"/>
			<g id="Grupo_16447">
				<g id="Grupo_16444" transform="translate(82.931)">
					
						<linearGradient id="Trazado_22335_00000176002711106913732330000013533514420025900931_" gradientUnits="userSpaceOnUse" x1="-660.7367" y1="-25.9911" x2="-660.7367" y2="-27.2671" gradientTransform="matrix(21.349 0 0 -31.976 14116.7412 -1140.325)">
						<stop  offset="0" style="stop-color:#ED4C14"/>
						<stop  offset="0.901" style="stop-color:#F6790B"/>
						<stop  offset="0.993" style="stop-color:#F77E0B"/>
					</linearGradient>
					<path id="Trazado_22335" style="fill:url(#Trazado_22335_00000176002711106913732330000013533514420025900931_);" d="M0-260
						v-32h5.9v11.5c1.8-2,4.4-3.1,7.1-3c5.6,0,8.3,2.9,8.3,8.7v14.8h-5.9v-14.8c0-2.6-1.3-3.9-3.9-3.9c-2.1,0.1-4.1,0.9-5.6,2.3
						v16.4L0-260z"/>
					
						<linearGradient id="Trazado_22336_00000106149654909553565980000011709870148488026770_" gradientUnits="userSpaceOnUse" x1="-660.5617" y1="-27.2068" x2="-660.5617" y2="-29.0138" gradientTransform="matrix(21.131 0 0 -22.6021 13993.0791 -924.1847)">
						<stop  offset="0" style="stop-color:#ED4C14"/>
						<stop  offset="0.901" style="stop-color:#F6790B"/>
						<stop  offset="0.993" style="stop-color:#F77E0B"/>
					</linearGradient>
					<path id="Trazado_22336" style="fill:url(#Trazado_22336_00000106149654909553565980000011709870148488026770_);" d="
						M45.3-282.6v22.6h-4.6l-0.7-3c-2.5,1.9-5.5,3-8.6,3c-4.8,0-7.2-2.8-7.2-8.5v-14.1h5.9v13.9c0,2.6,1.1,3.9,3.4,3.9
						c2.2-0.1,4.2-0.9,5.9-2.3v-15.5L45.3-282.6z"/>
					
						<linearGradient id="Trazado_22337_00000037681250864811942200000009293966809518281387_" gradientUnits="userSpaceOnUse" x1="-661.1414" y1="-25.9911" x2="-661.1414" y2="-27.2671" gradientTransform="matrix(21.871 0 0 -31.9761 14518.9072 -1140.3278)">
						<stop  offset="0" style="stop-color:#ED4C14"/>
						<stop  offset="0.901" style="stop-color:#F6790B"/>
						<stop  offset="0.993" style="stop-color:#F77E0B"/>
					</linearGradient>
					<path id="Trazado_22337" style="fill:url(#Trazado_22337_00000037681250864811942200000009293966809518281387_);" d="M48.2-292
						h5.9v10.3c1.7-1.2,3.8-1.8,5.9-1.8c6.7,0,10,3.8,10,11.3c0,8.1-3.8,12.2-11.5,12.2c-3.5,0-7-0.3-10.4-1L48.2-292z M54.1-265.5
						c1.5,0.5,3.1,0.7,4.7,0.6c3.6,0,5.4-2.5,5.4-7.6c0-4.1-1.5-6.2-4.6-6.2c-1.9,0-3.8,0.4-5.5,1.2L54.1-265.5z"/>
				</g>
				<g id="Grupo_16445" transform="translate(0 8.713)">
					
						<linearGradient id="Trazado_22338_00000031187083770149843370000002970480957587151793_" gradientUnits="userSpaceOnUse" x1="-579.7717" y1="-37.1688" x2="-579.7717" y2="-37.9028" gradientTransform="matrix(24.1489 0 0 -23.478 14048.4873 -1156.724)">
						<stop  offset="0" style="stop-color:#FFFFFF"/>
						<stop  offset="1" style="stop-color:#96999C"/>
					</linearGradient>
					<path id="Trazado_22338" style="fill:url(#Trazado_22338_00000031187083770149843370000002970480957587151793_);" d="
						M47.5-274.9l-5.7-16.4h-6.3l9,23.5h5.6l9.5-23.5h-6.3L47.5-274.9z"/>
					
						<linearGradient id="Trazado_22339_00000074436629040351500240000004117316552544924803_" gradientUnits="userSpaceOnUse" x1="-576.5742" y1="-37.0569" x2="-576.5742" y2="-37.7769" gradientTransform="matrix(19.9034 0 0 -23.9332 11545.749 -1170.9648)">
						<stop  offset="0" style="stop-color:#FFFFFF"/>
						<stop  offset="1" style="stop-color:#96999C"/>
					</linearGradient>
					<path id="Trazado_22339" style="fill:url(#Trazado_22339_00000074436629040351500240000004117316552544924803_);" d="M72.1-282
						h-3.8c-0.6,0-1.2-0.1-1.8-0.4c-0.7-0.4-1.1-1.2-1-2c0-0.9,0.6-1.7,1.4-2c1.1-0.4,2.2-0.6,3.4-0.5c2.8,0,5.6,0.5,8.2,1.5
						l0.3,0.1v-4.9c-2.7-0.9-5.5-1.4-8.3-1.3c-1.8,0-3.5,0.2-5.2,0.6c-1,0.3-1.9,0.7-2.7,1.3c-0.8,0.6-1.5,1.4-1.9,2.3
						c-0.2,0.5-0.4,1-0.5,1.5c-0.1,0.6-0.2,1.1-0.2,1.7c0,0.7,0.1,1.4,0.2,2.1c0.2,0.9,0.5,1.8,1.1,2.6c0.6,0.8,1.4,1.4,2.3,1.8
						c0.6,0.2,1.2,0.4,1.8,0.5c0.6,0.1,1.2,0.1,1.8,0.1h4.2c1.7,0,2.6,0.8,2.6,2.3c0,1.6-1.3,2.5-3.8,2.5c-3.1,0.1-6.1-0.5-9-1.6
						v4.9c2.8,0.9,5.8,1.4,8.8,1.3c6.6,0,10-2.5,10-7.4c0-0.6,0-1.1-0.1-1.7c-0.1-0.7-0.3-1.3-0.6-1.9c-0.5-1.1-1.3-1.9-2.4-2.5
						C75.3-281.7,73.7-282.1,72.1-282z"/>
					
						<linearGradient id="Trazado_22340_00000131367858185248259430000005536134250594680760_" gradientUnits="userSpaceOnUse" x1="-584.6567" y1="-37.0847" x2="-584.6567" y2="-37.8047" gradientTransform="matrix(35.823 0 0 -23.9061 20962.0703 -1170.6152)">
						<stop  offset="0" style="stop-color:#FFFFFF"/>
						<stop  offset="1" style="stop-color:#96999C"/>
					</linearGradient>
					<path id="Trazado_22340" style="fill:url(#Trazado_22340_00000131367858185248259430000005536134250594680760_);" d="
						M17.9-288.3L17.9-288.3c1-1.2,2.2-2.1,3.5-2.7c1.3-0.6,2.6-0.9,4-1c2.8,0,5.5,1.3,7.4,3.4c2,2,3.1,4.7,3,7.6v13H30v-13
						c0-2.8-2.1-5.3-4.5-5.3c-2.5,0-4.6,2.4-4.6,5.3v13H15v-13c0-2.9-2.1-5.3-4.6-5.3c-2.4,0-4.5,2.5-4.5,5.3v13H0v-13
						c0-2.8,1.1-5.5,3-7.6c1.9-2.1,4.5-3.4,7.4-3.4c1.4,0,2.8,0.3,4,1c1.3,0.7,2.4,1.6,3.4,2.6L17.9-288.3L17.9-288.3L17.9-288.3z"
						/>
					<path id="Trazado_22341" class="st2" d="M18-288.3"/>
				</g>
				<g id="Grupo_16446" transform="translate(23.981 37.182)">
					<path id="Trazado_22342" class="st11" d="M0-285v-5.2h1l0.2,0.7c0.4-0.5,1-0.8,1.7-0.7c0.5-0.1,1.1,0.2,1.3,0.7
						c0.4-0.4,1-0.7,1.7-0.7c1.2,0,1.8,0.7,1.8,2v3.2H6.3v-3.3c0-0.6-0.3-0.9-0.8-0.9c-0.4,0-0.8,0.2-1.1,0.5v3.6H3.1v-3.2
						c0-0.6-0.2-0.9-0.7-0.9c-0.4,0-0.8,0.2-1.1,0.5v3.6L0-285z"/>
					<path id="Trazado_22343" class="st11" d="M8.2-287.5c0-1.4,1.2-2.5,2.6-2.5c1.4,0,2.5,1.2,2.5,2.6c0,1.4-1.2,2.5-2.6,2.5
						c-1.2,0.2-2.4-0.7-2.6-2C8.2-287.1,8.2-287.3,8.2-287.5z M10.7-285.9c0.8,0,1.3-0.5,1.3-1.6c0-1.1-0.4-1.6-1.3-1.6
						c-0.8,0-1.3,0.5-1.3,1.6C9.5-286.5,9.9-285.9,10.7-285.9L10.7-285.9z"/>
					<path id="Trazado_22344" class="st11" d="M13.3-290.1h1.4l1.3,3.6l1.3-3.6h1.4l-2.1,5.2h-1.2L13.3-290.1z"/>
					<path id="Trazado_22345" class="st11" d="M20.1-292v1h-1.3v-1H20.1z M20.1-290.1v5.2h-1.3v-5.2L20.1-290.1z"/>
					<path id="Trazado_22346" class="st11" d="M23.1-290.1c1.1-0.2,2.2,0.7,2.4,1.8c0,0.2,0,0.4,0,0.6c0,0.2,0,0.4,0,0.6H22
						c0,0.7,0.5,1.1,1.6,1.1c0.5,0,1,0,1.6-0.1v1c-0.5,0.1-1.1,0.2-1.7,0.1c-1.9,0-2.8-0.9-2.8-2.6
						C20.7-289.3,21.5-290.1,23.1-290.1z M22-288h2.2v0c0.1-0.5-0.3-1-0.8-1.1c-0.1,0-0.2,0-0.3,0C22.4-289.1,22-288.7,22-288
						L22-288z"/>
					<path id="Trazado_22347" class="st11" d="M26-285.2v-1.1c0.6,0.2,1.3,0.4,2,0.3c0.6,0,0.8-0.2,0.8-0.5c0-0.3-0.2-0.5-0.6-0.5
						h-0.9c-0.8,0.1-1.5-0.4-1.6-1.2c0-0.1,0-0.3,0-0.4c0-1.1,0.8-1.6,2.3-1.6c0.6,0,1.2,0.1,1.8,0.3v1.1c-0.6-0.2-1.2-0.4-1.9-0.3
						c-0.7,0-1.1,0.2-1.1,0.5c0,0.3,0.2,0.5,0.6,0.5h0.8c1.1,0,1.7,0.5,1.7,1.6c0,1.1-0.7,1.6-2.2,1.6C27.3-284.9,26.7-285,26-285.2
						z"/>
					<path id="Trazado_22348" class="st11" d="M34.7-290.1h1.4l1.3,3.6l1.3-3.6H40l-2.1,5.2h-1.2L34.7-290.1z"/>
					<path id="Trazado_22349" class="st11" d="M41.5-292v1h-1.3v-1H41.5z M41.5-290.1v5.2h-1.3v-5.2L41.5-290.1z"/>
					<path id="Trazado_22350" class="st11" d="M46.9-285.3c-0.8,0.2-1.5,0.3-2.3,0.3c-1.7,0-2.5-0.9-2.5-2.7
						c-0.2-1.2,0.6-2.3,1.8-2.5c0.2,0,0.4,0,0.6,0c0.4,0,0.7,0.1,1.1,0.2v-2.1h1.3L46.9-285.3z M45.6-288.8c-0.3-0.2-0.7-0.3-1-0.3
						c-0.8,0-1.2,0.5-1.2,1.4c0,1.1,0.4,1.6,1.3,1.6c0.3,0,0.7,0,1-0.1V-288.8z"/>
					<path id="Trazado_22351" class="st11" d="M49.9-290.1c1.1-0.2,2.2,0.7,2.4,1.8c0,0.2,0,0.4,0,0.6c0,0.2,0,0.4,0,0.6h-3.4
						c0,0.7,0.5,1.1,1.6,1.1c0.5,0,1,0,1.6-0.1v1c-0.5,0.1-1.1,0.2-1.7,0.1c-1.9,0-2.8-0.9-2.8-2.6
						C47.5-289.3,48.3-290.1,49.9-290.1z M48.8-288H51v0c0.1-0.5-0.3-1-0.8-1.1c-0.1,0-0.2,0-0.3,0C49.2-289.1,48.9-288.7,48.8-288
						L48.8-288z"/>
					<path id="Trazado_22352" class="st11" d="M52.6-287.5c0-1.4,1.2-2.5,2.6-2.5c1.4,0,2.5,1.2,2.5,2.6c0,1.4-1.2,2.5-2.6,2.5
						c-1.2,0.2-2.4-0.7-2.6-2C52.6-287.1,52.6-287.3,52.6-287.5z M55.2-285.9c0.8,0,1.3-0.5,1.3-1.6c0-1.1-0.4-1.6-1.3-1.6
						c-0.8,0-1.3,0.5-1.3,1.6C53.9-286.5,54.3-285.9,55.2-285.9L55.2-285.9z"/>
					<path id="Trazado_22353" class="st11" d="M62.8-285.2v-1.1c0.6,0.2,1.3,0.4,2,0.3c0.6,0,0.8-0.2,0.8-0.5c0-0.3-0.2-0.5-0.6-0.5
						h-0.9c-0.8,0.1-1.5-0.4-1.6-1.2c0-0.1,0-0.3,0-0.4c0-1.1,0.8-1.6,2.3-1.6c0.6,0,1.2,0.1,1.8,0.3v1.1c-0.6-0.2-1.2-0.4-1.9-0.3
						c-0.7,0-1.1,0.2-1.1,0.5c0,0.3,0.2,0.5,0.6,0.5h0.8c1.1,0,1.7,0.5,1.7,1.6c0,1.1-0.7,1.6-2.2,1.6C64-284.9,63.4-285,62.8-285.2
						z"/>
					<path id="Trazado_22354" class="st11" d="M67.3-291h1l0.2,0.8h1.3v1h-1.2v2.4c0,0.5,0.2,0.7,0.6,0.7h0.5v1h-1.2
						c-0.9,0-1.3-0.5-1.3-1.4L67.3-291z"/>
					<path id="Trazado_22355" class="st11" d="M70.3-285v-5.2h1l0.2,0.7c0.4-0.4,0.9-0.6,1.4-0.7v1.1c-0.5,0-1,0.2-1.3,0.6v3.5H70.3
						z"/>
					<path id="Trazado_22356" class="st11" d="M75.4-290.1c1.1-0.2,2.2,0.7,2.4,1.8c0,0.2,0,0.4,0,0.6c0,0.2,0,0.4,0,0.6h-3.4
						c0,0.7,0.5,1.1,1.6,1.1c0.5,0,1,0,1.6-0.1v1c-0.5,0.1-1.1,0.2-1.7,0.1c-1.9,0-2.8-0.9-2.8-2.6C73-289.3,73.8-290.1,75.4-290.1z
						 M74.3-288h2.2v0c0.1-0.5-0.3-1-0.8-1.1c-0.1,0-0.2,0-0.3,0C74.7-289.1,74.3-288.7,74.3-288L74.3-288z"/>
					<path id="Trazado_22357" class="st11" d="M78.1-286.6c0-1,0.7-1.5,2.2-1.5c0.4,0,0.7,0,1.1,0.1v-0.4c0-0.5-0.3-0.7-1-0.7
						c-0.6,0-1.3,0.1-1.9,0.2v-1c0.6-0.2,1.2-0.2,1.9-0.2c1.5,0,2.3,0.6,2.3,1.7v3.5h-0.8l-0.5-0.5c-0.4,0.3-1,0.5-1.5,0.5
						C78.7-285,78.1-285.5,78.1-286.6z M80.3-287.2c-0.6,0-0.9,0.2-0.9,0.6c0,0.5,0.3,0.7,0.8,0.7c0.4,0,0.9-0.1,1.2-0.4v-0.8
						C81-287.2,80.7-287.2,80.3-287.2L80.3-287.2z"/>
					<path id="Trazado_22358" class="st11" d="M83.5-285v-5.2h1l0.2,0.7c0.4-0.5,1-0.8,1.7-0.7c0.5-0.1,1.1,0.2,1.3,0.7
						c0.4-0.4,1-0.7,1.7-0.7c1.2,0,1.8,0.7,1.8,2v3.2h-1.3v-3.3c0-0.6-0.3-0.9-0.8-0.9c-0.4,0-0.8,0.2-1.1,0.5v3.6h-1.3v-3.2
						c0-0.6-0.2-0.9-0.7-0.9c-0.4,0-0.8,0.2-1.1,0.5v3.6L83.5-285z"/>
					<path id="Trazado_22359" class="st11" d="M93.2-292v1h-1.3v-1H93.2z M93.2-290.1v5.2h-1.3v-5.2L93.2-290.1z"/>
					<path id="Trazado_22360" class="st11" d="M94.1-285v-5.2h1l0.2,0.8c0.4-0.5,1-0.8,1.7-0.8c1.2,0,1.8,0.6,1.8,1.9v3.3h-1.3v-3.3
						c0.1-0.4-0.2-0.8-0.6-0.9c-0.1,0-0.1,0-0.2,0c-0.5,0-0.9,0.2-1.2,0.5v3.6H94.1z"/>
					<path id="Trazado_22361" class="st11" d="M104.2-285.4c0,1.5-0.9,2.3-2.7,2.3c-0.6,0-1.1-0.1-1.7-0.2v-1
						c0.6,0.2,1.1,0.3,1.7,0.2c0.9,0,1.4-0.4,1.4-1.2c-0.4,0.2-0.8,0.3-1.2,0.2c-1.5,0-2.3-0.8-2.3-2.5c0-1.7,0.9-2.6,2.7-2.6
						c0.7,0,1.5,0.1,2.2,0.2L104.2-285.4z M102.9-289c-0.3-0.1-0.6-0.1-0.9-0.1c-0.9,0-1.4,0.5-1.4,1.5c0,1,0.4,1.4,1.2,1.4
						c0.4,0,0.8-0.1,1.1-0.3L102.9-289z"/>
				</g>
				<rect id="Rect치ngulo_9345" x="83.9" y="-254" class="st2" width="0.4" height="6.3"/>
			</g>
		</g>
	</g>
</g>
</svg>
