<svg xmlns="http://www.w3.org/2000/svg" xmlns:xlink="http://www.w3.org/1999/xlink" width="479" height="641" viewBox="0 0 479 641">
  <defs>
    <linearGradient id="linear-gradient" x1="0.5" y1="-0.539" x2="0.5" y2="0.737" gradientUnits="objectBoundingBox">
      <stop offset="0" stop-color="#ed4c14"/>
      <stop offset="0.901" stop-color="#f6790b"/>
      <stop offset="0.993" stop-color="#f77e0b"/>
    </linearGradient>
    <linearGradient id="linear-gradient-2" x1="0.5" y1="-1.178" x2="0.5" y2="0.629" xlink:href="#linear-gradient"/>
    <linearGradient id="linear-gradient-4" x1="0.5" y1="0.307" x2="0.5" y2="1.041" gradientUnits="objectBoundingBox">
      <stop offset="0" stop-color="#fff"/>
      <stop offset="1" stop-color="#96999c"/>
    </linearGradient>
    <linearGradient id="linear-gradient-5" x1="0.5" y1="0.311" x2="0.5" y2="1.031" xlink:href="#linear-gradient-4"/>
    <linearGradient id="linear-gradient-6" x1="0.5" y1="0.332" x2="0.5" y2="1.052" xlink:href="#linear-gradient-4"/>
  </defs>
  <g id="Grupo_20620" data-name="Grupo 20620" transform="translate(1639 -656)">
    <rect id="Rectángulo_18656" data-name="Rectángulo 18656" width="479" height="641" transform="translate(-1639 656)" fill="none"/>
    <g id="Grupo_20619" data-name="Grupo 20619" transform="translate(50 -64.484)">
      <rect id="Rectángulo_18657" data-name="Rectángulo 18657" width="479" height="252" transform="translate(-1689 1109.484)" fill="#281b39"/>
      <text id="VENDEDOR_AUTORIZADO" data-name="VENDEDOR AUTORIZADO" transform="translate(-1449.025 1163.361)" fill="#fff" font-size="21" font-family="Montserrat-Bold, Montserrat" font-weight="700" letter-spacing="0.02em"><tspan x="-145.992" y="0">VENDEDOR AUTORIZADO</tspan></text>
      <g id="main_logo_mvshub" transform="translate(-1532.849 1178.712)">
        <rect id="Rectángulo_9344" data-name="Rectángulo 9344" width="0.402" height="6.329" transform="translate(56.291 38.011)" fill="#fff"/>
        <g id="Grupo_16447" data-name="Grupo 16447">
          <g id="Grupo_16444" data-name="Grupo 16444" transform="translate(82.931)">
            <path id="Trazado_22335" data-name="Trazado 22335" d="M1587.079,2003.643v-31.976H1593v11.494a9.228,9.228,0,0,1,7.088-3q8.34,0,8.34,8.676v14.8h-5.926v-14.8q0-3.891-3.868-3.891a8.733,8.733,0,0,0-5.635,2.3v16.39Z" transform="translate(-1587.079 -1971.667)" fill="url(#linear-gradient)"/>
            <path id="Trazado_22336" data-name="Trazado 22336" d="M1661.287,1992.228v22.6h-4.629l-.715-3a14.189,14.189,0,0,1-8.587,3q-7.2,0-7.2-8.519v-14.083h5.926v13.927q0,3.89,3.4,3.891a9.693,9.693,0,0,0,5.881-2.3v-15.514Z" transform="translate(-1615.96 -1982.855)" fill="url(#linear-gradient-2)"/>
            <path id="Trazado_22337" data-name="Trazado 22337" d="M1692.743,1971.667h5.926v10.286a10.385,10.385,0,0,1,5.925-1.789q10.018,0,10.018,11.27,0,12.209-11.471,12.209a61.317,61.317,0,0,1-10.4-.961Zm5.926,26.542a15.536,15.536,0,0,0,4.718.648q5.367,0,5.366-7.58,0-6.193-4.628-6.193a12.213,12.213,0,0,0-5.456,1.207Z" transform="translate(-1644.573 -1971.667)" fill="url(#linear-gradient)"/>
          </g>
          <g id="Grupo_16445" data-name="Grupo 16445" transform="translate(0 8.713)">
            <path id="Trazado_22338" data-name="Trazado 22338" d="M1495.1,2008.767l-5.7-16.413h-6.261l8.966,23.478h5.635l9.548-23.478h-6.261Z" transform="translate(-1447.589 -1991.636)" fill="url(#linear-gradient-4)"/>
            <path id="Trazado_22339" data-name="Trazado 22339" d="M1548.817,2001.366h-3.8a3.657,3.657,0,0,1-1.791-.377,2.067,2.067,0,0,1-1-1.971,2.043,2.043,0,0,1,1.441-1.956,8.931,8.931,0,0,1,3.366-.5,22.766,22.766,0,0,1,8.235,1.462l.262.1V1993.2a25.538,25.538,0,0,0-8.341-1.342,18.753,18.753,0,0,0-5.234.637,8.608,8.608,0,0,0-2.713,1.291,5.818,5.818,0,0,0-1.872,2.285,6.583,6.583,0,0,0-.468,1.473,8.769,8.769,0,0,0-.156,1.694,10.9,10.9,0,0,0,.183,2.072,6.356,6.356,0,0,0,1.094,2.622,5.289,5.289,0,0,0,2.343,1.763,7.938,7.938,0,0,0,1.775.465,11.932,11.932,0,0,0,1.762.122h4.249q2.571,0,2.571,2.349,0,2.46-3.823,2.459a24.2,24.2,0,0,1-9.034-1.565v4.919a27.079,27.079,0,0,0,8.81,1.341q9.973,0,9.973-7.379a10.517,10.517,0,0,0-.124-1.658,7.079,7.079,0,0,0-.583-1.939,5.358,5.358,0,0,0-2.4-2.48A10.073,10.073,0,0,0,1548.817,2001.366Z" transform="translate(-1476.759 -1991.37)" fill="url(#linear-gradient-5)"/>
            <path id="Trazado_22340" data-name="Trazado 22340" d="M1423.109,1994.463l.078-.088a11.283,11.283,0,0,1,3.373-2.644,9.215,9.215,0,0,1,4.029-.951,9.921,9.921,0,0,1,7.355,3.383,10.77,10.77,0,0,1,3.045,7.572v12.951h-5.856v-12.951c0-2.8-2.108-5.286-4.544-5.286-2.53,0-4.591,2.432-4.591,5.286v12.951h-5.841v-12.951c0-2.854-2.062-5.286-4.591-5.286-2.436,0-4.544,2.484-4.544,5.286v12.951h-5.856v-12.951a10.771,10.771,0,0,1,3.045-7.572,9.922,9.922,0,0,1,7.355-3.383,9.215,9.215,0,0,1,4.029.951,11.288,11.288,0,0,1,3.373,2.644l.078.088.031.034Z" transform="translate(-1405.165 -1990.78)" fill="url(#linear-gradient-6)"/>
            <path id="Trazado_22341" data-name="Trazado 22341" d="M1444.617,1998.867" transform="translate(-1426.632 -1995.18)" fill="#fff"/>
          </g>
          <g id="Grupo_16446" data-name="Grupo 16446" transform="translate(23.981 37.182)">
            <path id="Trazado_22342" data-name="Trazado 22342" d="M1457.77,2062.5v-5.168h1.009l.153.748a2.2,2.2,0,0,1,1.668-.748,1.356,1.356,0,0,1,1.334.709,2.466,2.466,0,0,1,1.659-.709q1.781,0,1.781,1.964v3.2h-1.3v-3.253q0-.862-.778-.862a1.6,1.6,0,0,0-1.117.522v3.593h-1.3v-3.239q0-.876-.718-.877a1.5,1.5,0,0,0-1.078.522v3.593Z" transform="translate(-1457.77 -2055.461)" fill="#f77e0b"/>
            <path id="Trazado_22343" data-name="Trazado 22343" d="M1475.726,2059.9a2.56,2.56,0,1,1,2.559,2.594A2.28,2.28,0,0,1,1475.726,2059.9Zm2.559,1.6q1.255,0,1.255-1.619,0-1.581-1.255-1.58t-1.255,1.58Q1477.03,2061.5,1478.286,2061.5Z" transform="translate(-1467.541 -2055.443)" fill="#f77e0b"/>
            <path id="Trazado_22344" data-name="Trazado 22344" d="M1486.88,2057.331h1.378l1.255,3.613,1.3-3.613h1.378l-2.1,5.168h-1.24Z" transform="translate(-1473.61 -2055.461)" fill="#f77e0b"/>
            <path id="Trazado_22345" data-name="Trazado 22345" d="M1500.309,2053.228v1.034h-1.3v-1.034Zm0,1.87v5.168h-1.3V2055.1Z" transform="translate(-1480.207 -2053.228)" fill="#f77e0b"/>
            <path id="Trazado_22346" data-name="Trazado 22346" d="M1505.568,2057.331a2.1,2.1,0,0,1,2.353,2.4,4.662,4.662,0,0,1-.044.639h-3.431q0,1.093,1.6,1.093a8.473,8.473,0,0,0,1.565-.147v1.033a8.04,8.04,0,0,1-1.664.148q-2.811,0-2.811-2.643Q1503.141,2057.331,1505.568,2057.331Zm-1.122,2.136h2.2v-.04a.953.953,0,0,0-1.083-1.073Q1504.534,2058.355,1504.446,2059.468Z" transform="translate(-1482.458 -2055.461)" fill="#f77e0b"/>
            <path id="Trazado_22347" data-name="Trazado 22347" d="M1514.6,2062.194v-1.083a5.323,5.323,0,0,0,1.989.345q.842,0,.842-.542,0-.516-.566-.517h-.936a1.381,1.381,0,0,1-1.575-1.551q0-1.624,2.3-1.624a5.611,5.611,0,0,1,1.836.3v1.083a4.987,4.987,0,0,0-1.87-.345q-1.059,0-1.059.542,0,.516.616.517h.836q1.723,0,1.723,1.55,0,1.625-2.2,1.625A5.968,5.968,0,0,1,1514.6,2062.194Z" transform="translate(-1488.556 -2055.402)" fill="#f77e0b"/>
            <path id="Trazado_22348" data-name="Trazado 22348" d="M1533.875,2057.331h1.378l1.255,3.613,1.3-3.613h1.378l-2.1,5.168h-1.24Z" transform="translate(-1499.18 -2055.461)" fill="#f77e0b"/>
            <path id="Trazado_22349" data-name="Trazado 22349" d="M1547.3,2053.228v1.034H1546v-1.034Zm0,1.87v5.168H1546V2055.1Z" transform="translate(-1505.778 -2053.228)" fill="#f77e0b"/>
            <path id="Trazado_22350" data-name="Trazado 22350" d="M1554.96,2059.957a9.14,9.14,0,0,1-2.318.31q-2.505,0-2.506-2.687a2.18,2.18,0,0,1,2.451-2.481,2.593,2.593,0,0,1,1.068.247v-2.117h1.3Zm-1.3-3.51a1.812,1.812,0,0,0-1.014-.266q-1.216,0-1.216,1.364,0,1.619,1.265,1.619a3.192,3.192,0,0,0,.965-.143Z" transform="translate(-1508.028 -2053.228)" fill="#f77e0b"/>
            <path id="Trazado_22351" data-name="Trazado 22351" d="M1564.419,2057.331a2.1,2.1,0,0,1,2.353,2.4,4.643,4.643,0,0,1-.044.639h-3.43q0,1.093,1.6,1.093a8.473,8.473,0,0,0,1.565-.147v1.033a8.039,8.039,0,0,1-1.664.148q-2.81,0-2.81-2.643Q1561.993,2057.331,1564.419,2057.331Zm-1.122,2.136h2.205v-.04a.953.953,0,0,0-1.083-1.073Q1563.385,2058.355,1563.3,2059.468Z" transform="translate(-1514.48 -2055.461)" fill="#f77e0b"/>
            <path id="Trazado_22352" data-name="Trazado 22352" d="M1573.2,2059.9a2.559,2.559,0,1,1,2.559,2.594A2.279,2.279,0,0,1,1573.2,2059.9Zm2.559,1.6q1.256,0,1.256-1.619,0-1.581-1.256-1.58t-1.255,1.58Q1574.5,2061.5,1575.759,2061.5Z" transform="translate(-1520.578 -2055.443)" fill="#f77e0b"/>
            <path id="Trazado_22353" data-name="Trazado 22353" d="M1595.127,2062.194v-1.083a5.324,5.324,0,0,0,1.989.345q.842,0,.841-.542,0-.516-.566-.517h-.936a1.381,1.381,0,0,1-1.574-1.551q0-1.624,2.3-1.624a5.612,5.612,0,0,1,1.836.3v1.083a4.99,4.99,0,0,0-1.87-.345q-1.059,0-1.058.542,0,.516.615.517h.837q1.723,0,1.722,1.55,0,1.625-2.2,1.625A5.971,5.971,0,0,1,1595.127,2062.194Z" transform="translate(-1532.375 -2055.402)" fill="#f77e0b"/>
            <path id="Trazado_22354" data-name="Trazado 22354" d="M1605.44,2055.5h.965l.2.837h1.3v1.034h-1.157v2.377q0,.723.625.723h.532v1.034h-1.162q-1.3,0-1.3-1.393Z" transform="translate(-1538.12 -2054.462)" fill="#f77e0b"/>
            <path id="Trazado_22355" data-name="Trazado 22355" d="M1611.9,2062.5v-5.168h1.009l.162.66a2.045,2.045,0,0,1,1.437-.66v1.053a1.758,1.758,0,0,0-1.3.605v3.51Z" transform="translate(-1541.635 -2055.461)" fill="#f77e0b"/>
            <path id="Trazado_22356" data-name="Trazado 22356" d="M1620.242,2057.331a2.1,2.1,0,0,1,2.353,2.4,4.587,4.587,0,0,1-.044.639h-3.43q0,1.093,1.6,1.093a8.47,8.47,0,0,0,1.565-.147v1.033a8.038,8.038,0,0,1-1.664.148q-2.811,0-2.81-2.643Q1617.816,2057.331,1620.242,2057.331Zm-1.122,2.136h2.2v-.04a.953.953,0,0,0-1.083-1.073Q1619.209,2058.355,1619.12,2059.468Z" transform="translate(-1544.855 -2055.461)" fill="#f77e0b"/>
            <path id="Trazado_22357" data-name="Trazado 22357" d="M1629.023,2060.89q0-1.541,2.245-1.541a5.738,5.738,0,0,1,1.053.1v-.389q0-.694-1-.694a8.174,8.174,0,0,0-1.88.246v-1.034a8.164,8.164,0,0,1,1.88-.246q2.3,0,2.3,1.7v3.465h-.758l-.463-.462a2.575,2.575,0,0,1-1.486.462Q1629.023,2062.5,1629.023,2060.89Zm2.245-.655q-.94,0-.941.64,0,.689.788.689a2.009,2.009,0,0,0,1.206-.4v-.827A5.363,5.363,0,0,0,1631.268,2060.235Z" transform="translate(-1550.953 -2055.461)" fill="#f77e0b"/>
            <path id="Trazado_22358" data-name="Trazado 22358" d="M1640.932,2062.5v-5.168h1.009l.153.748a2.2,2.2,0,0,1,1.668-.748,1.355,1.355,0,0,1,1.334.709,2.466,2.466,0,0,1,1.659-.709q1.781,0,1.782,1.964v3.2h-1.3v-3.253q0-.862-.778-.862a1.6,1.6,0,0,0-1.117.522v3.593h-1.3v-3.239q0-.876-.719-.877a1.5,1.5,0,0,0-1.078.522v3.593Z" transform="translate(-1557.433 -2055.461)" fill="#f77e0b"/>
            <path id="Trazado_22359" data-name="Trazado 22359" d="M1660.732,2053.228v1.034h-1.3v-1.034Zm0,1.87v5.168h-1.3V2055.1Z" transform="translate(-1567.496 -2053.228)" fill="#f77e0b"/>
            <path id="Trazado_22360" data-name="Trazado 22360" d="M1664.1,2062.5v-5.168h1.009l.162.758a2.312,2.312,0,0,1,1.693-.758q1.836,0,1.836,1.91v3.259h-1.3v-3.259a.755.755,0,0,0-.851-.857,1.922,1.922,0,0,0-1.24.507v3.608Z" transform="translate(-1570.041 -2055.461)" fill="#f77e0b"/>
            <path id="Trazado_22361" data-name="Trazado 22361" d="M1680.548,2062.106q0,2.264-2.722,2.264a5.333,5.333,0,0,1-1.693-.247v-1.034a5.455,5.455,0,0,0,1.7.247q1.408,0,1.408-1.182a3.166,3.166,0,0,1-1.25.247q-2.3,0-2.3-2.515,0-2.554,2.682-2.554a13.621,13.621,0,0,1,2.175.211Zm-1.3-3.6a2.736,2.736,0,0,0-.91-.119q-1.354,0-1.354,1.492,0,1.442,1.166,1.443a2.449,2.449,0,0,0,1.1-.266Z" transform="translate(-1576.345 -2055.461)" fill="#f77e0b"/>
          </g>
          <rect id="Rectángulo_9345" data-name="Rectángulo 9345" width="0.402" height="6.329" transform="translate(83.922 38.011)" fill="#fff"/>
        </g>
      </g>
    </g>
  </g>
</svg>
