<svg xmlns="http://www.w3.org/2000/svg" xmlns:xlink="http://www.w3.org/1999/xlink" width="423" height="557.239" viewBox="0 0 423 557.239">
  <defs>
    <linearGradient id="linear-gradient" x1="0.5" y1="-0.539" x2="0.5" y2="0.737" gradientUnits="objectBoundingBox">
      <stop offset="0" stop-color="#ed4c14"/>
      <stop offset="0.901" stop-color="#f6790b"/>
      <stop offset="0.993" stop-color="#f77e0b"/>
    </linearGradient>
    <linearGradient id="linear-gradient-2" x1="0.5" y1="-1.178" x2="0.5" y2="0.629" xlink:href="#linear-gradient"/>
    <linearGradient id="linear-gradient-4" x1="0.5" y1="0.307" x2="0.5" y2="1.041" gradientUnits="objectBoundingBox">
      <stop offset="0" stop-color="#fff"/>
      <stop offset="1" stop-color="#96999c"/>
    </linearGradient>
    <linearGradient id="linear-gradient-5" x1="0.5" y1="0.311" x2="0.5" y2="1.031" xlink:href="#linear-gradient-4"/>
    <linearGradient id="linear-gradient-6" x1="0.5" y1="0.332" x2="0.5" y2="1.052" xlink:href="#linear-gradient-4"/>
  </defs>
  <g id="Grupo_20621" data-name="Grupo 20621" transform="translate(1241 -1206.649)">
    <g id="Grupo_20620" data-name="Grupo 20620" transform="translate(-0.176)">
      <g id="Grupo_2" data-name="Grupo 2" transform="translate(-933.233 1316.499) rotate(90)">
        <path id="Trazado_16" data-name="Trazado 16" d="M0,0H17.2l-.319,18.16" transform="translate(145.209)" fill="none" stroke="aqua" stroke-miterlimit="10" stroke-width="3"/>
        <path id="Trazado_17" data-name="Trazado 17" d="M17.2,0H0L.319,18.16" fill="none" stroke="aqua" stroke-miterlimit="10" stroke-width="3"/>
      </g>
      <g id="Grupo_3" data-name="Grupo 3" transform="translate(-1106.665 1316.499) rotate(90)">
        <path id="Trazado_18" data-name="Trazado 18" d="M0,18.16H17.2L16.885,0" transform="translate(145.209)" fill="none" stroke="aqua" stroke-miterlimit="10" stroke-width="3"/>
        <path id="Trazado_19" data-name="Trazado 19" d="M17.2,18.16H0L.319,0" fill="none" stroke="aqua" stroke-miterlimit="10" stroke-width="3"/>
      </g>
    </g>
    <circle id="Elipse_1" data-name="Elipse 1" cx="208.947" cy="208.947" r="208.947" transform="translate(-1238.11 1207.149)" fill="none" stroke="#fff" stroke-miterlimit="10" stroke-width="1"/>
    <circle id="Elipse_2" data-name="Elipse 2" cx="200.981" cy="200.981" r="200.981" transform="translate(-1230.5 1215.115)" fill="none" stroke="#fff" stroke-miterlimit="10" stroke-width="1"/>
    <rect id="Rectángulo_18649" data-name="Rectángulo 18649" width="423" height="130.1" transform="translate(-1241 1633.787)" fill="#281b3a"/>
    <text id="VENDEDOR_AUTORIZADO" data-name="VENDEDOR AUTORIZADO" transform="translate(-1038.671 1667.148)" fill="#fff" font-size="21" font-family="Montserrat-Bold, Montserrat" font-weight="700" letter-spacing="0.02em"><tspan x="-145.992" y="0">VENDEDOR AUTORIZADO</tspan></text>
    <rect id="Rectángulo_9344" data-name="Rectángulo 9344" width="0.461" height="7.251" transform="translate(-1052.163 1729.824)" fill="#fff"/>
    <g id="Grupo_16447" data-name="Grupo 16447" transform="translate(-1116.651 1686.279)">
      <g id="Grupo_16444" data-name="Grupo 16444" transform="translate(95.006)">
        <path id="Trazado_22335" data-name="Trazado 22335" d="M1587.079,2008.3v-36.632h6.788v13.167a10.572,10.572,0,0,1,8.121-3.433q9.554,0,9.555,9.939V2008.3h-6.788v-16.958q0-4.458-4.431-4.458a10,10,0,0,0-6.456,2.639V2008.3Z" transform="translate(-1587.079 -1971.667)" fill="url(#linear-gradient)"/>
        <path id="Trazado_22336" data-name="Trazado 22336" d="M1664.364,1992.228v25.894h-5.3l-.82-3.433a16.254,16.254,0,0,1-9.837,3.433q-8.249,0-8.249-9.76v-16.134h6.788v15.954q0,4.457,3.894,4.457a11.1,11.1,0,0,0,6.737-2.638v-17.773Z" transform="translate(-1612.436 -1981.49)" fill="url(#linear-gradient-2)"/>
        <path id="Trazado_22337" data-name="Trazado 22337" d="M1692.743,1971.667h6.789v11.783a11.9,11.9,0,0,1,6.788-2.049q11.477,0,11.477,12.911,0,13.987-13.141,13.987a70.244,70.244,0,0,1-11.912-1.1Zm6.789,30.406a17.8,17.8,0,0,0,5.4.743q6.148,0,6.148-8.684,0-7.1-5.3-7.1a13.991,13.991,0,0,0-6.25,1.383Z" transform="translate(-1637.559 -1971.667)" fill="url(#linear-gradient)"/>
      </g>
      <g id="Grupo_16445" data-name="Grupo 16445" transform="translate(0 9.982)">
        <path id="Trazado_22338" data-name="Trazado 22338" d="M1496.838,2011.157l-6.532-18.8h-7.172l10.272,26.9h6.455l10.938-26.9h-7.173Z" transform="translate(-1442.414 -1991.532)" fill="url(#linear-gradient-4)"/>
        <path id="Trazado_22339" data-name="Trazado 22339" d="M1550.575,2002.75h-4.354a4.19,4.19,0,0,1-2.052-.431,2.368,2.368,0,0,1-1.151-2.258,2.34,2.34,0,0,1,1.651-2.241,10.232,10.232,0,0,1,3.856-.576,26.082,26.082,0,0,1,9.434,1.675l.3.118V1993.4a29.257,29.257,0,0,0-9.555-1.537,21.484,21.484,0,0,0-6,.729,9.861,9.861,0,0,0-3.108,1.479,6.666,6.666,0,0,0-2.144,2.617,7.549,7.549,0,0,0-.536,1.688,10.045,10.045,0,0,0-.179,1.941,12.487,12.487,0,0,0,.21,2.373,7.278,7.278,0,0,0,1.253,3,6.059,6.059,0,0,0,2.684,2.019,9.1,9.1,0,0,0,2.033.533,13.677,13.677,0,0,0,2.018.14h4.867q2.946,0,2.946,2.69,0,2.818-4.38,2.818a27.726,27.726,0,0,1-10.349-1.793v5.635a31.019,31.019,0,0,0,10.093,1.537q11.425,0,11.426-8.453a12.053,12.053,0,0,0-.142-1.9,8.109,8.109,0,0,0-.668-2.222,6.139,6.139,0,0,0-2.746-2.841A11.54,11.54,0,0,0,1550.575,2002.75Z" transform="translate(-1468.025 -1991.298)" fill="url(#linear-gradient-5)"/>
        <path id="Trazado_22340" data-name="Trazado 22340" d="M1425.721,1995l.089-.1a12.928,12.928,0,0,1,3.864-3.029,10.558,10.558,0,0,1,4.616-1.09,11.366,11.366,0,0,1,8.426,3.875,12.339,12.339,0,0,1,3.489,8.674v14.837H1439.5V2003.33c0-3.209-2.415-6.056-5.206-6.056-2.9,0-5.26,2.786-5.26,6.056v14.837h-6.691V2003.33c0-3.27-2.362-6.056-5.26-6.056-2.791,0-5.206,2.846-5.206,6.056v14.837h-6.709V2003.33a12.34,12.34,0,0,1,3.489-8.674,11.367,11.367,0,0,1,8.426-3.875,10.558,10.558,0,0,1,4.616,1.09,12.933,12.933,0,0,1,3.864,3.029l.089.1.035.039Z" transform="translate(-1405.165 -1990.78)" fill="url(#linear-gradient-6)"/>
        <path id="Trazado_22341" data-name="Trazado 22341" d="M1444.617,1998.867" transform="translate(-1424.013 -1994.643)" fill="#fff"/>
      </g>
      <g id="Grupo_16446" data-name="Grupo 16446" transform="translate(27.473 42.596)">
        <path id="Trazado_22342" data-name="Trazado 22342" d="M1457.77,2063.252v-5.921h1.156l.175.857a2.515,2.515,0,0,1,1.911-.857,1.554,1.554,0,0,1,1.528.812,2.825,2.825,0,0,1,1.9-.812q2.041,0,2.041,2.25v3.671h-1.494v-3.727q0-.988-.891-.987a1.834,1.834,0,0,0-1.28.6v4.116h-1.494v-3.71q0-1-.823-1a1.716,1.716,0,0,0-1.235.6v4.116Z" transform="translate(-1457.77 -2055.188)" fill="#f77e0b"/>
        <path id="Trazado_22343" data-name="Trazado 22343" d="M1475.726,2060.276q0-2.977,2.932-2.977t2.932,2.977q0,2.973-2.932,2.972T1475.726,2060.276Zm2.932,1.833q1.438,0,1.438-1.855,0-1.811-1.438-1.81t-1.438,1.81Q1477.22,2062.109,1478.658,2062.109Z" transform="translate(-1466.349 -2055.173)" fill="#f77e0b"/>
        <path id="Trazado_22344" data-name="Trazado 22344" d="M1486.88,2057.331h1.578l1.438,4.139,1.495-4.139h1.578l-2.407,5.921h-1.421Z" transform="translate(-1471.677 -2055.188)" fill="#f77e0b"/>
        <path id="Trazado_22345" data-name="Trazado 22345" d="M1500.5,2053.228v1.184h-1.494v-1.184Zm0,2.143v5.921h-1.494v-5.921Z" transform="translate(-1477.47 -2053.228)" fill="#f77e0b"/>
        <path id="Trazado_22346" data-name="Trazado 22346" d="M1505.921,2057.331q2.7,0,2.7,2.752a5.343,5.343,0,0,1-.05.732h-3.93q0,1.252,1.838,1.252a9.715,9.715,0,0,0,1.793-.168v1.184a9.2,9.2,0,0,1-1.906.169q-3.22,0-3.22-3.028Q1503.141,2057.331,1505.921,2057.331Zm-1.285,2.447h2.526v-.046a1.091,1.091,0,0,0-1.24-1.229Q1504.737,2058.5,1504.636,2059.779Z" transform="translate(-1479.446 -2055.188)" fill="#f77e0b"/>
        <path id="Trazado_22347" data-name="Trazado 22347" d="M1514.631,2062.918v-1.24a6.1,6.1,0,0,0,2.278.4q.965,0,.964-.621,0-.592-.648-.592h-1.072a1.582,1.582,0,0,1-1.8-1.776q0-1.86,2.633-1.861a6.431,6.431,0,0,1,2.1.339v1.241a5.713,5.713,0,0,0-2.142-.395q-1.213,0-1.213.62,0,.592.705.592h.958q1.974,0,1.974,1.775,0,1.862-2.515,1.862A6.838,6.838,0,0,1,1514.631,2062.918Z" transform="translate(-1484.8 -2055.136)" fill="#f77e0b"/>
        <path id="Trazado_22348" data-name="Trazado 22348" d="M1533.875,2057.331h1.579l1.438,4.139,1.494-4.139h1.579l-2.407,5.921h-1.421Z" transform="translate(-1494.129 -2055.188)" fill="#f77e0b"/>
        <path id="Trazado_22349" data-name="Trazado 22349" d="M1547.495,2053.228v1.184H1546v-1.184Zm0,2.143v5.921H1546v-5.921Z" transform="translate(-1499.921 -2053.228)" fill="#f77e0b"/>
        <path id="Trazado_22350" data-name="Trazado 22350" d="M1555.662,2060.936a10.465,10.465,0,0,1-2.656.355q-2.87,0-2.87-3.079,0-2.842,2.808-2.842a2.969,2.969,0,0,1,1.224.282v-2.425h1.494Zm-1.494-4.021a2.074,2.074,0,0,0-1.162-.3q-1.393,0-1.393,1.562,0,1.855,1.449,1.855a3.662,3.662,0,0,0,1.105-.163Z" transform="translate(-1501.897 -2053.228)" fill="#f77e0b"/>
        <path id="Trazado_22351" data-name="Trazado 22351" d="M1564.772,2057.331q2.695,0,2.695,2.752a5.3,5.3,0,0,1-.051.732h-3.93q0,1.252,1.838,1.252a9.715,9.715,0,0,0,1.793-.168v1.184a9.2,9.2,0,0,1-1.906.169q-3.22,0-3.219-3.028Q1561.993,2057.331,1564.772,2057.331Zm-1.286,2.447h2.526v-.046a1.092,1.092,0,0,0-1.24-1.229Q1563.588,2058.5,1563.487,2059.779Z" transform="translate(-1507.562 -2055.188)" fill="#f77e0b"/>
        <path id="Trazado_22352" data-name="Trazado 22352" d="M1573.2,2060.276q0-2.977,2.931-2.977t2.933,2.977q0,2.973-2.933,2.972T1573.2,2060.276Zm2.931,1.833q1.44,0,1.439-1.855,0-1.811-1.439-1.81t-1.437,1.81Q1574.694,2062.109,1576.132,2062.109Z" transform="translate(-1512.916 -2055.173)" fill="#f77e0b"/>
        <path id="Trazado_22353" data-name="Trazado 22353" d="M1595.162,2062.918v-1.24a6.1,6.1,0,0,0,2.278.4q.964,0,.964-.621,0-.592-.648-.592h-1.072a1.582,1.582,0,0,1-1.8-1.776q0-1.86,2.633-1.861a6.433,6.433,0,0,1,2.1.339v1.241a5.717,5.717,0,0,0-2.143-.395q-1.213,0-1.212.62,0,.592.7.592h.959q1.974,0,1.973,1.775,0,1.862-2.515,1.862A6.841,6.841,0,0,1,1595.162,2062.918Z" transform="translate(-1523.273 -2055.136)" fill="#f77e0b"/>
        <path id="Trazado_22354" data-name="Trazado 22354" d="M1605.44,2055.5h1.105l.226.958h1.489v1.185h-1.325v2.723q0,.829.716.829h.609v1.184h-1.331q-1.489,0-1.489-1.6Z" transform="translate(-1528.318 -2054.311)" fill="#f77e0b"/>
        <path id="Trazado_22355" data-name="Trazado 22355" d="M1611.9,2063.252v-5.921h1.156l.186.756a2.343,2.343,0,0,1,1.646-.756v1.206a2.014,2.014,0,0,0-1.494.694v4.021Z" transform="translate(-1531.403 -2055.188)" fill="#f77e0b"/>
        <path id="Trazado_22356" data-name="Trazado 22356" d="M1620.6,2057.331q2.695,0,2.7,2.752a5.267,5.267,0,0,1-.051.732h-3.93q0,1.252,1.838,1.252a9.713,9.713,0,0,0,1.793-.168v1.184a9.2,9.2,0,0,1-1.906.169q-3.22,0-3.219-3.028Q1617.816,2057.331,1620.6,2057.331Zm-1.285,2.447h2.526v-.046a1.091,1.091,0,0,0-1.24-1.229Q1619.412,2058.5,1619.31,2059.779Z" transform="translate(-1534.231 -2055.188)" fill="#f77e0b"/>
        <path id="Trazado_22357" data-name="Trazado 22357" d="M1629.023,2061.408q0-1.765,2.572-1.765a6.574,6.574,0,0,1,1.206.113v-.445q0-.8-1.145-.794a9.363,9.363,0,0,0-2.153.281v-1.184a9.366,9.366,0,0,1,2.153-.282q2.64,0,2.639,1.951v3.97h-.869l-.53-.53a2.949,2.949,0,0,1-1.7.53Q1629.023,2063.252,1629.023,2061.408Zm2.572-.75q-1.077,0-1.078.734,0,.789.9.789a2.3,2.3,0,0,0,1.381-.462v-.947A6.148,6.148,0,0,0,1631.595,2060.658Z" transform="translate(-1539.584 -2055.188)" fill="#f77e0b"/>
        <path id="Trazado_22358" data-name="Trazado 22358" d="M1640.932,2063.252v-5.921h1.156l.175.857a2.516,2.516,0,0,1,1.911-.857,1.553,1.553,0,0,1,1.528.812,2.825,2.825,0,0,1,1.9-.812q2.041,0,2.041,2.25v3.671h-1.494v-3.727q0-.988-.891-.987a1.832,1.832,0,0,0-1.28.6v4.116h-1.495v-3.71q0-1-.823-1a1.716,1.716,0,0,0-1.235.6v4.116Z" transform="translate(-1545.274 -2055.188)" fill="#f77e0b"/>
        <path id="Trazado_22359" data-name="Trazado 22359" d="M1660.922,2053.228v1.184h-1.494v-1.184Zm0,2.143v5.921h-1.494v-5.921Z" transform="translate(-1554.11 -2053.228)" fill="#f77e0b"/>
        <path id="Trazado_22360" data-name="Trazado 22360" d="M1664.1,2063.252v-5.921h1.156l.186.869a2.65,2.65,0,0,1,1.94-.869q2.1,0,2.1,2.188v3.733h-1.495v-3.733a.865.865,0,0,0-.975-.981,2.2,2.2,0,0,0-1.421.581v4.133Z" transform="translate(-1556.344 -2055.188)" fill="#f77e0b"/>
        <path id="Trazado_22361" data-name="Trazado 22361" d="M1681.255,2062.8q0,2.594-3.118,2.594a6.11,6.11,0,0,1-1.94-.282v-1.184a6.251,6.251,0,0,0,1.951.282q1.613,0,1.613-1.354a3.627,3.627,0,0,1-1.432.282q-2.639,0-2.639-2.882,0-2.926,3.073-2.926a15.605,15.605,0,0,1,2.492.242Zm-1.494-4.127a3.141,3.141,0,0,0-1.043-.136q-1.551,0-1.551,1.709,0,1.652,1.336,1.653a2.8,2.8,0,0,0,1.258-.3Z" transform="translate(-1561.88 -2055.188)" fill="#f77e0b"/>
      </g>
      <rect id="Rectángulo_9345" data-name="Rectángulo 9345" width="0.461" height="7.251" transform="translate(96.142 43.545)" fill="#fff"/>
    </g>
  </g>
</svg>
