<?xml version="1.0" encoding="utf-8"?>
<!-- Generator: Adobe Illustrator 26.0.3, SVG Export Plug-In . SVG Version: 6.00 Build 0)  -->
<svg version="1.1" id="Capa_1" xmlns="http://www.w3.org/2000/svg" xmlns:xlink="http://www.w3.org/1999/xlink" x="0px" y="0px"
	 viewBox="0 0 398 515.2" style="enable-background:new 0 0 398 515.2;" xml:space="preserve">
<style type="text/css">
	.st0{fill:none;stroke:#FFFFFF;}
</style>
<path id="Elipse_1_00000105387485972511689480000002015552584060674950_" class="st0" d="M2.4,196.6C2.4,88,90.4,0,199,0"/>
<path id="Elipse_1_00000062894084754847637910000000520343784168424610_" class="st0" d="M199,393.2c-108.6,0-196.6-88-196.6-196.6"
	/>
<path id="Elipse_1_00000099657774853382303890000001298662946939046067_" class="st0" d="M395.6,196.6c0,108.6-88,196.6-196.6,196.6
	"/>
<path id="Elipse_1" class="st0" d="M199,0c108.6,0,196.6,88,196.6,196.6"/>
<path id="Elipse_2_00000028304959885841601260000000084757343572683408_" class="st0" d="M9.9,196.6C9.9,92.2,94.6,7.5,199,7.5"/>
<path id="Elipse_2_00000062189515063469358090000016890844484163236798_" class="st0" d="M199,385.7C94.6,385.7,9.9,301,9.9,196.6"
	/>
<path id="Elipse_2_00000085227966852505555480000016978667061224485805_" class="st0" d="M388.1,196.6
	c0,104.4-84.7,189.1-189.1,189.1"/>
<path id="Elipse_2" class="st0" d="M199,7.5c104.4,0,189.1,84.7,189.1,189.1"/>
</svg>
